<?xml version="1.0" encoding="UTF-8"?><svg id="_レイヤー_2" xmlns="http://www.w3.org/2000/svg" viewBox="0 0 28.23 28.22"><g id="main"><path d="m14.12,6.88c-4.01,0-7.24,3.23-7.24,7.24s3.23,7.24,7.24,7.24,7.24-3.23,7.24-7.24-3.23-7.24-7.24-7.24Zm0,11.94c-2.59,0-4.7-2.11-4.7-4.7s2.11-4.7,4.7-4.7,4.7,2.11,4.7,4.7-2.12,4.7-4.7,4.7h0Zm9.22-12.24c0,.94-.76,1.69-1.69,1.69s-1.69-.76-1.69-1.69.76-1.69,1.69-1.69,1.69.76,1.69,1.69Zm4.79,1.71c-.11-2.26-.62-4.26-2.28-5.91C24.2.73,22.2.21,19.94.1,17.61-.03,10.62-.03,8.29.1c-2.25.11-4.26.62-5.91,2.27C.72,4.02.21,6.02.1,8.29-.03,10.62-.03,17.6.1,19.93c.11,2.26.62,4.26,2.28,5.91,1.66,1.65,3.65,2.17,5.91,2.28,2.33.13,9.31.13,11.64,0,2.26-.11,4.26-.62,5.91-2.28,1.65-1.65,2.17-3.65,2.28-5.91.13-2.33.13-9.31,0-11.64h0Zm-3.01,14.14c-.49,1.23-1.44,2.19-2.68,2.68-1.86.74-6.27.57-8.32.57s-6.47.16-8.32-.57c-1.23-.49-2.19-1.44-2.68-2.68-.74-1.86-.57-6.27-.57-8.32s-.16-6.47.57-8.32c.49-1.23,1.44-2.19,2.68-2.68,1.86-.74,6.27-.57,8.32-.57s6.47-.16,8.32.57c1.23.49,2.19,1.44,2.68,2.68.74,1.86.57,6.27.57,8.32s.17,6.47-.57,8.32Z" style="fill:#23f815; stroke-width:0px;"/></g></svg>