<?xml version="1.0" encoding="UTF-8"?><svg id="_レイヤー_2" xmlns="http://www.w3.org/2000/svg" viewBox="0 0 206.74 116.15"><g id="main"><g id="EJIF2z"><path d="m206.73,57.49c0,1.93.01,3.86,0,5.79-.03,3.77-.01,7.55-.15,11.32-.12,3.29-.62,6.55-1.97,9.59-1.49,3.37-3.72,6.15-6.94,8.03-1.17.68-2.33,1.4-3.58,1.89-1.87.74-3.81,1.3-5.72,1.92-1.07.34-2.15.65-3.23.95-2.77.78-5.54,1.55-8.31,2.33-2.24.63-4.48,1.28-6.73,1.9-1.58.44-3.17.83-4.76,1.26-2.69.72-5.39,1.45-8.08,2.18-2.5.68-5,1.36-7.51,2.03-2.45.65-4.9,1.26-7.35,1.9-1.36.36-2.72.76-4.08,1.12-2.31.61-4.62,1.2-6.94,1.79-1.92.49-3.85.97-5.79,1.41-1.82.42-3.66.79-5.49,1.16-1.86.37-3.73.73-5.61,1.03-1.56.25-3.14.42-4.71.61-3.7.45-7.41.63-11.12.24-2.29-.24-4.57-.59-6.84-.96-1.84-.3-3.68-.68-5.5-1.1-1.6-.36-3.17-.83-4.76-1.24-1.22-.32-2.45-.64-3.67-.96-2.7-.71-5.4-1.43-8.11-2.11-1.62-.41-3.25-.74-4.88-1.13-1.57-.37-3.13-.77-4.7-1.15-2.88-.69-5.77-1.36-8.66-2.06-1.68-.41-3.34-.87-5.02-1.29-2.23-.56-4.47-1.09-6.7-1.67-1.62-.42-3.22-.9-4.83-1.34-1.58-.43-3.17-.84-4.74-1.29-1.6-.46-3.2-.94-4.78-1.47-2.65-.89-5.3-1.77-7.91-2.76-2.45-.93-4.79-2.15-6.96-3.62-2.35-1.59-4.49-3.43-6.16-5.75-1.89-2.63-3.12-5.51-3.71-8.74-.66-3.66-.62-7.35-.68-11.02-.09-6.02-.07-12.04-.02-18.06.03-3.8.28-7.6.92-11.36.56-3.3,1.94-6.25,4.14-8.8,2.17-2.51,4.83-4.35,7.78-5.78,1.6-.77,3.27-1.43,4.92-2.09.77-.31,1.59-.51,2.39-.73,1.5-.4,3.02-.74,4.52-1.16,2.21-.62,4.41-1.29,6.62-1.93,1.02-.3,2.05-.57,3.08-.84,3.15-.82,6.29-1.65,9.45-2.44,2.37-.6,4.76-1.13,7.13-1.71,2.79-.69,5.58-1.42,8.37-2.12,1.9-.47,3.81-.91,5.71-1.37,2.91-.7,5.82-1.4,8.73-2.12,1.03-.25,2.06-.54,3.08-.84,1.96-.57,3.91-1.19,5.88-1.74,1.58-.45,3.17-.84,4.76-1.24,1.48-.37,2.96-.75,4.45-1.07,1.01-.22,2.03-.43,3.06-.51,2.09-.18,4.2-.4,6.29-.36,3.91.07,7.83.31,11.74.48.11,0,.23.02.34.05,1.65.38,3.31.77,4.96,1.15,1.49.34,2.99.63,4.46,1.03,2.47.67,4.92,1.43,7.39,2.12,1.49.42,3.01.78,4.51,1.19,1.25.34,2.49.7,3.74,1.04,2.58.7,5.17,1.39,7.76,2.08,1.33.36,2.67.73,4,1.08,2.61.69,5.23,1.37,7.85,2.07,1.98.53,3.94,1.09,5.92,1.61,2.14.57,4.28,1.14,6.44,1.68,3.04.76,6.1,1.48,9.14,2.24,2.6.65,5.19,1.32,7.78,1.99,1.45.38,2.91.72,4.32,1.19,2.47.81,4.82,1.86,6.92,3.45,2.04,1.53,3.71,3.36,5,5.54,1.18,2,1.9,4.19,2.36,6.46.56,2.78.69,5.6.69,8.43,0,3.37.05,6.74.08,10.11,0,.83,0,1.67,0,2.5h0Zm-202.43,1.98c0,2.11-.04,5.83.02,9.54.02,1.7.21,3.39.37,5.08.05.54.22,1.07.41,1.58.83,2.34,2.46,4.08,4.36,5.57,1.73,1.37,3.68,2.34,5.75,3.12,2.51.95,5.08,1.67,7.68,2.31,1.26.31,2.52.6,3.78.92,1.56.4,3.11.84,4.68,1.23,1.51.38,3.02.72,4.53,1.09,1.45.36,2.89.77,4.34,1.12,2.8.67,5.6,1.32,8.41,1.99,3.16.75,6.33,1.51,9.49,2.26,1.37.32,2.75.62,4.12.95,1.65.4,3.29.84,4.94,1.23,1.65.4,3.31.76,4.97,1.14,2.94.69,5.88,1.39,8.82,2.08,2.61.61,5.21,1.23,7.82,1.81,1.99.45,3.99.91,6,1.25,2.82.48,5.67.73,8.52.67,5.16-.11,10.28-.64,15.31-1.86,2.94-.71,5.91-1.29,8.85-1.97,3-.69,5.98-1.44,8.97-2.16,2.52-.6,5.04-1.18,7.57-1.77,1.06-.25,2.13-.49,3.19-.74.48-.11.95-.23,1.42-.34,1.54-.38,3.07-.78,4.61-1.14,1.68-.4,3.37-.75,5.05-1.14.98-.23,1.95-.49,2.93-.74,1.79-.44,3.58-.88,5.37-1.32.84-.21,1.67-.43,2.51-.63,1.65-.39,3.31-.77,4.95-1.17,1.26-.31,2.5-.66,3.76-.98,1.51-.38,3.02-.73,4.53-1.1,1.56-.38,3.13-.75,4.69-1.17,1.28-.35,2.53-.78,3.8-1.14,2.41-.68,4.64-1.73,6.58-3.32,2.65-2.17,4.28-4.95,4.73-8.36.17-1.28.29-2.58.29-3.87.03-7.35.05-14.69,0-22.04-.01-1.89-.22-3.79-.87-5.61-.84-2.38-2.12-4.47-3.88-6.26-1.55-1.58-3.3-2.89-5.36-3.72-2.57-1.03-5.26-1.67-7.93-2.38-1.5-.4-3.03-.7-4.53-1.07-2.57-.64-5.12-1.33-7.69-1.96-3.83-.93-7.67-1.83-11.51-2.74-1.18-.28-2.35-.57-3.52-.86-1.79-.43-3.58-.87-5.37-1.3-1.46-.35-2.92-.67-4.37-1.02-1.59-.39-3.18-.81-4.77-1.2-1.79-.43-3.59-.83-5.38-1.24-1.01-.23-2.02-.45-3.03-.69-2.72-.64-5.43-1.31-8.15-1.93-3.03-.69-6.07-1.34-9.12-1.98-1.8-.37-3.61-.75-5.43-.99-1.83-.23-3.67-.31-5.51-.42-3.49-.21-6.98-.07-10.44.38-3.63.47-7.15,1.51-10.72,2.29-2.73.6-5.43,1.31-8.14,1.94-2.72.64-5.45,1.23-8.16,1.88-2.63.62-5.25,1.29-7.88,1.92-2.35.57-4.7,1.12-7.06,1.68-2.72.64-5.44,1.27-8.16,1.9-1.26.29-2.52.57-3.78.89-2.6.65-5.19,1.32-7.79,1.96-2.51.63-5.03,1.24-7.55,1.86-2.15.53-4.31,1.05-6.46,1.58-1.06.26-2.14.47-3.18.8-2.69.86-5.13,2.2-7.21,4.13-1.34,1.23-2.61,2.52-3.41,4.19-.9,1.88-1.35,3.85-1.4,5.92-.11,4.15-.2,8.29-.35,14.05Zm7.19,27.96c-.04.08-.08.16-.12.24.5.5.99,1,1.63,1.33,1.17.61,2.32,1.27,3.53,1.81,1.55.69,3.12,1.35,4.71,1.91,2.06.72,4.15,1.36,6.25,1.98,2.26.67,4.53,1.31,6.81,1.93,1.72.47,3.45.91,5.18,1.36,1.39.36,2.78.73,4.18,1.08,1.31.33,2.63.63,3.94.97,1.67.43,3.33.9,5,1.34,2.7.72,5.4,1.44,8.1,2.15,2.95.77,5.91,1.53,8.86,2.27,2.76.69,5.53,1.36,8.3,2.04,1.15.28,2.29.56,3.44.83,2.77.67,5.53,1.37,8.31,1.98,3.21.7,6.47,1.13,9.73,1.47,5.37.56,10.71.04,16-.82,3.09-.5,6.18-1.08,9.21-1.91,3.05-.84,6.13-1.57,9.2-2.35,1.06-.27,2.12-.54,3.18-.82,2.36-.63,4.73-1.26,7.09-1.89,1.56-.42,3.11-.85,4.66-1.28,2.47-.67,4.94-1.34,7.41-2.01,1.36-.37,2.71-.78,4.07-1.15,2.28-.62,4.56-1.2,6.83-1.84,2.25-.63,4.47-1.32,6.72-1.94,2.38-.66,4.78-1.27,7.17-1.92,1.19-.32,2.38-.67,3.57-1.01,1.16-.33,2.31-.7,3.49-.98,1.8-.43,3.56-.94,5.22-1.77,1.16-.59,2.26-1.27,3.2-2.18.23-.23.57-.42.48-.84-.59-.18-.67-.16-1.32.1-.75.3-1.49.61-2.26.85-.9.28-1.83.51-2.74.74-1.76.44-3.52.88-5.28,1.3-1.73.42-3.48.8-5.21,1.23-1.28.32-2.55.72-3.83,1.03-2.71.66-5.44,1.27-8.15,1.93-2.66.65-5.3,1.33-7.95,2-3.16.79-6.31,1.58-9.47,2.35-2.35.57-4.71,1.1-7.06,1.66-1.76.42-3.52.87-5.28,1.3-1.48.36-2.96.73-4.45,1.07-1.71.4-3.42.78-5.13,1.18-1.54.36-3.07.75-4.61,1.11-1.96.46-3.92.92-5.89,1.35-2.64.59-5.27,1.2-7.99,1.37-4.58.28-9.15.45-13.72.01-1.92-.19-3.84-.36-5.71-.9-1.16-.34-2.35-.56-3.53-.83-1.88-.44-3.76-.86-5.64-1.3-2.55-.6-5.1-1.22-7.65-1.82-2.07-.49-4.15-.97-6.22-1.45-1.51-.35-3.03-.7-4.54-1.06-1.51-.35-3.03-.7-4.54-1.06-1.65-.4-3.29-.84-4.94-1.24-1.37-.33-2.75-.61-4.12-.95-2.63-.65-5.24-1.33-7.87-1.98-2.68-.66-5.37-1.28-8.06-1.94-1.76-.43-3.52-.89-5.28-1.32-1.51-.37-3.03-.7-4.53-1.07-1.65-.41-3.28-.87-4.93-1.27-1.93-.46-3.84-.99-5.69-1.75-.57-.23-1.16-.41-1.74-.62ZM197.01,28.97c-.33-.61-.81-1.05-1.36-1.4-1.51-.95-3.06-1.83-4.74-2.47-1.99-.76-4.03-1.38-6.1-1.89-2.52-.62-5.04-1.21-7.55-1.87-2.25-.59-4.48-1.28-6.73-1.9-1.42-.39-2.85-.72-4.27-1.08-1.14-.29-2.29-.56-3.43-.86-2.59-.68-5.17-1.38-7.76-2.06-1.59-.41-3.19-.77-4.77-1.2-2.28-.62-4.54-1.28-6.81-1.92-2.74-.77-5.49-1.54-8.23-2.32-1.05-.3-2.11-.59-3.16-.88-1.5-.41-3-.81-4.5-1.21-1.5-.4-3.01-.79-4.52-1.16-1.85-.45-3.7-.89-5.55-1.29-2.25-.48-4.48-1.07-6.8-1.19-.52-.03-1.03-.1-1.55-.13-2.21-.13-4.43-.4-6.64-.33-3.42.1-6.85.29-10.2,1.12-1.76.43-3.55.74-5.31,1.16-2.6.63-5.19,1.31-7.78,1.99-1.53.4-3.06.81-4.59,1.23-2.63.73-5.26,1.47-7.9,2.2-1.22.33-2.45.63-3.68.93-1.03.26-2.07.49-3.1.76-1.53.4-3.05.85-4.58,1.25-1.7.44-3.41.83-5.11,1.27-1.31.34-2.61.72-3.92,1.05-2.54.65-5.08,1.28-7.62,1.92-1.09.27-2.19.51-3.27.8-1.47.39-2.93.82-4.4,1.23-1.86.52-3.72,1.02-5.57,1.55-2.35.67-4.7,1.36-6.94,2.34-1.63.72-3.27,1.42-4.88,2.17-.52.24-.98.61-1.44.95-.16.12-.26.33-.42.56.47.26.81.08,1.16-.03,1.24-.38,2.47-.8,3.72-1.13,1.75-.46,3.52-.85,5.28-1.29,2.37-.59,4.74-1.2,7.12-1.8,3.07-.77,6.15-1.53,9.22-2.29,1.03-.26,2.07-.51,3.1-.75,1.82-.43,3.65-.84,5.47-1.28,1.65-.4,3.29-.83,4.94-1.23,1.56-.38,3.14-.72,4.7-1.1,2.72-.65,5.42-1.33,8.14-1.98,2.72-.64,5.44-1.25,8.16-1.88,2.91-.68,5.83-1.38,8.74-2.06,1.54-.36,3.09-.69,4.63-1.07,1.62-.39,3.22-.88,4.86-1.22,2.57-.54,5.17-.94,7.8-.93,3.8.01,7.6.08,11.4.17,2.05.05,4.06.49,6.06.92,1.77.38,3.53.84,5.29,1.26,1.74.41,3.48.79,5.22,1.2,1.51.35,3.02.73,4.54,1.08,1.71.4,3.42.79,5.13,1.19.98.23,1.96.45,2.94.69,1.65.41,3.29.83,4.94,1.24,1.15.28,2.29.56,3.44.83,1.51.36,3.03.68,4.54,1.05,1.59.39,3.17.84,4.76,1.23,2.71.66,5.44,1.28,8.15,1.93,1.18.28,2.35.59,3.52.88,2.6.65,5.19,1.3,7.79,1.95,1.76.44,3.51.9,5.27,1.34,1.48.37,2.96.75,4.44,1.1,1.54.36,3.11.62,4.63,1.04,1.72.47,3.4,1.08,5.1,1.63.32.1.64.28,1.01-.02Z" style="stroke-width:0px;"/><path d="m119.14,59.22c.04,1.94-.96,3.25-2.59,4.16-.43.24-.87.46-1.28.72-.51.33-.69.81-.55,1.42.26,1.12.85,2.01,1.78,2.67,1.03.73,2.5.64,3.45-.2.77-.67,1.24-1.51,1.43-2.5.43-2.27.71-4.55.84-6.85.06-1.04.16-2.07.65-3.02.5-.97,1.61-1.42,2.89-1.15,1.02.22,1.68,1.02,1.69,2.1,0,.52-.03,1.04-.1,1.55-.25,2.12-.53,4.23-.77,6.35-.07.63-.1,1.27-.03,1.9.17,1.72,1.8,2.55,3.31,1.73.98-.53,1.57-1.39,1.78-2.44.33-1.63.56-3.29.8-4.94.2-1.34.32-2.69.53-4.03.28-1.82,2.18-2.79,3.82-1.95.59.3.99.81,1,1.51,0,.55-.02,1.1-.09,1.64-.31,2.49-.64,4.97-.95,7.45-.05.43-.11.86-.09,1.29.04.74.38,1.36,1.07,1.65.7.3,1.36.08,1.92-.41.67-.59,1.04-1.37,1.36-2.18.1-.24.14-.5.26-.73.27-.54.72-.58,1.06-.08.15.23.27.53.28.8,0,.45,0,.94-.16,1.36-.94,2.45-2.51,4.24-5.2,4.81-1.52.32-2.85-.08-4.04-1.03-.04-.04-.08-.08-.13-.12-.99-.87-1.17-.88-2.21-.1-1.66,1.24-3.52,1.63-5.55,1.25-.9-.17-1.69-.57-2.38-1.17-1.12-.96-1.27-.96-2.55-.13-.92.6-1.89,1.1-2.99,1.31-1.83.35-3.42-.17-4.83-1.31-1.55-1.25-2.33-2.97-2.8-4.85-.32-1.31-.07-1.72,1.14-2.32,1.17-.58,2.26-1.26,2.97-2.42.51-.84.46-1.64,0-2.45-.45-.79-1.18-1.05-2.04-1.05-.93,0-1.75.31-2.52.8-.61.4-.97.94-1.06,1.69-.38,3.03-.79,6.05-1.19,9.08-.06.49-.12.97-.22,1.45-.16.77-.55,1.1-1.32,1.09-.86,0-1.73-.04-2.59-.09-.7-.04-1.02-.41-1-1.13,0-.29.06-.57.1-.86.51-3.71,1.03-7.42,1.52-11.12.38-2.82.73-5.65,1.1-8.48.12-.94.22-1.89.37-2.83.07-.42.21-.84.39-1.22.6-1.25,1.26-1.61,2.61-1.51,1.05.07,1.78.7,1.96,1.74.07.42.08.86.02,1.29-.28,2.29-.59,4.57-.89,6.85-.02.14-.04.29-.04.43,0,.62.26.86.86.75.51-.1,1-.26,1.49-.44,1.48-.55,3.02-.62,4.51-.27,1.84.43,2.92,1.73,3.2,3.93.03.2,0,.4,0,.6Z" style="stroke-width:0px;"/><path d="m80.12,53.73c.69,0,1.38-.02,2.07,0,.9.03,1.17.37,1.05,1.27-.15,1.13-.47,1.43-1.64,1.44-1.27.02-2.54,0-3.8,0-.58,0-1.01.24-1.25.76-.26.54-.19,1.07.2,1.53.19.22.39.42.6.62.75.75,1.5,1.51,2,2.47,1.1,2.08,1.42,4.23.72,6.51-.61,1.98-2.49,3.27-4.38,3.37-.57.03-1.15.03-1.72.03-1.08.01-1.94-.52-2.72-1.18-.75-.64-1.25-1.46-1.18-2.49.09-1.38.24-2.75.4-4.12.22-1.92.46-3.83.69-5.75.02-.2.06-.4.05-.6-.02-.79-.37-1.15-1.17-1.17-.98-.01-1.96,0-2.94,0-.26,0-.52,0-.78,0-.9-.04-1.25-.37-1.26-1.18,0-.84.47-1.47,1.21-1.51.92-.05,1.84-.03,2.76-.03.46,0,.92,0,1.38,0,.99-.02,1.34-.33,1.43-1.32.16-1.78.42-3.54.64-5.32.02-.17.07-.34.1-.51.43-2.13,1.84-2.47,3.54-2.13.81.16,1.37.86,1.41,1.76.03.74-.02,1.5-.1,2.24-.13,1.29-.31,2.57-.48,3.86-.14,1.06.11,1.38,1.17,1.41.66.02,1.33,0,1.99,0h0Zm-5.01,13.03s.06,0,.1.01c0,.26-.01.52,0,.78.03.45.18.87.64,1.04.5.18.95.08,1.35-.3.5-.48.82-1.04.91-1.72.22-1.55-.12-2.97-1.01-4.26-.19-.27-.42-.49-.79-.42-.37.07-.5.38-.55.7-.23,1.39-.44,2.78-.66,4.18Z" style="stroke-width:0px;"/><path d="m101.03,62.49c-.02,3.26-1.34,5.67-3.73,7.46-3.36,2.51-7.03,2.53-10.69.81-2.4-1.13-3.52-3.31-3.79-5.9-.42-3.98,2-7.8,5.47-9.38,1.82-.83,3.76-1.22,5.73-.82,3.47.69,5.88,2.65,6.83,6.17.16.6.14,1.25.18,1.67Zm-13.21,1.68c.15.67.29,1.64.59,2.56.26.78.69,1.52,1.53,1.89,1.71.74,3.53.29,4.59-1.24,1.76-2.54,2.03-5.32.79-8.11-.96-2.16-3.28-2.49-4.83-1.29-.4.31-.77.69-1.08,1.11-1.04,1.42-1.38,3.07-1.6,5.08Z" style="stroke-width:0px;"/></g></g></svg>